<mxfile host="app.diagrams.net" modified="2024-09-19T07:07:45.790Z" agent="Mozilla/5.0 (Macintosh; Intel Mac OS X 10_15_7) AppleWebKit/537.36 (KHTML, like Gecko) Chrome/128.0.0.0 Safari/537.36" etag="ZfCcT4sF4dOcwlFonUt2" version="24.6.4" type="github">
  <diagram name="第 1 页" id="eqiptB6UeIFvQPP3mNQV">
    <mxGraphModel dx="1430" dy="773" grid="1" gridSize="10" guides="1" tooltips="1" connect="1" arrows="1" fold="1" page="1" pageScale="1" pageWidth="827" pageHeight="1169" math="0" shadow="0">
      <root>
        <mxCell id="0" />
        <mxCell id="1" parent="0" />
        <mxCell id="PE3BUHw4Dig1-88KNphl-5" value="" style="rounded=0;whiteSpace=wrap;html=1;" vertex="1" parent="1">
          <mxGeometry x="20" y="60" width="760" height="230" as="geometry" />
        </mxCell>
        <mxCell id="PE3BUHw4Dig1-88KNphl-1" value="basescan" style="rounded=0;whiteSpace=wrap;html=1;" vertex="1" parent="1">
          <mxGeometry x="60" y="120" width="120" height="60" as="geometry" />
        </mxCell>
        <mxCell id="PE3BUHw4Dig1-88KNphl-2" value="blockscout" style="rounded=0;whiteSpace=wrap;html=1;" vertex="1" parent="1">
          <mxGeometry x="230" y="120" width="120" height="60" as="geometry" />
        </mxCell>
        <mxCell id="PE3BUHw4Dig1-88KNphl-3" value="moralis" style="rounded=0;whiteSpace=wrap;html=1;" vertex="1" parent="1">
          <mxGeometry x="410" y="120" width="120" height="60" as="geometry" />
        </mxCell>
        <mxCell id="PE3BUHw4Dig1-88KNphl-4" value="alchemy" style="rounded=0;whiteSpace=wrap;html=1;" vertex="1" parent="1">
          <mxGeometry x="590" y="120" width="120" height="60" as="geometry" />
        </mxCell>
        <mxCell id="PE3BUHw4Dig1-88KNphl-6" value="配置日志源. 相关代码位于&amp;nbsp;chain/syncer/main.go 中, 每个日志源都会去拉取事件, 然后写入数据库. 同一个事件日志只有一个源可以写入成功&lt;div&gt;&lt;br&gt;&lt;/div&gt;" style="text;html=1;align=center;verticalAlign=middle;whiteSpace=wrap;rounded=0;" vertex="1" parent="1">
          <mxGeometry x="170" y="220" width="390" height="30" as="geometry" />
        </mxCell>
        <mxCell id="PE3BUHw4Dig1-88KNphl-8" value="db" style="rounded=0;whiteSpace=wrap;html=1;" vertex="1" parent="1">
          <mxGeometry x="330" y="370" width="120" height="60" as="geometry" />
        </mxCell>
        <mxCell id="PE3BUHw4Dig1-88KNphl-17" style="edgeStyle=orthogonalEdgeStyle;rounded=0;orthogonalLoop=1;jettySize=auto;html=1;entryX=0.583;entryY=0;entryDx=0;entryDy=0;entryPerimeter=0;" edge="1" parent="1" source="PE3BUHw4Dig1-88KNphl-5" target="PE3BUHw4Dig1-88KNphl-8">
          <mxGeometry relative="1" as="geometry" />
        </mxCell>
        <mxCell id="PE3BUHw4Dig1-88KNphl-18" value="日志处理器. 相关代码位于 chain/logs/mian.go 中. 会定时自数据库中读取日志进行处理" style="rounded=0;whiteSpace=wrap;html=1;" vertex="1" parent="1">
          <mxGeometry x="30" y="500" width="300" height="240" as="geometry" />
        </mxCell>
        <mxCell id="PE3BUHw4Dig1-88KNphl-21" style="edgeStyle=orthogonalEdgeStyle;rounded=0;orthogonalLoop=1;jettySize=auto;html=1;entryX=0.617;entryY=1.067;entryDx=0;entryDy=0;entryPerimeter=0;" edge="1" parent="1" source="PE3BUHw4Dig1-88KNphl-18" target="PE3BUHw4Dig1-88KNphl-8">
          <mxGeometry relative="1" as="geometry" />
        </mxCell>
      </root>
    </mxGraphModel>
  </diagram>
</mxfile>
